<svg xmlns="http://www.w3.org/2000/svg" viewBox="0 0 260 64" role="img" aria-labelledby="title desc">
<title id="title">JRP Industries</title><desc id="desc">JRP Industries corporate logo</desc>
<defs><linearGradient id="g" x1="0" y1="0" x2="1" y2="1"><stop stop-color="#2563EB"/><stop offset="1" stop-color="#F59E0B"/></linearGradient></defs>
<rect width="58" height="58" x="3" y="3" rx="17" fill="#0F172A"/>
<path d="M18 18h11v19c0 8-4 13-12 13h-4v-9h3c2 0 3-1 3-4V18Zm16 0h12c8 0 13 4 13 11 0 5-2 8-6 10l7 11H48l-5-9v9H34V18Zm9 8v8h3c3 0 4-1 4-4s-1-4-4-4h-3Z" fill="url(#g)"/>
<text x="76" y="30" font-family="Inter,Arial,sans-serif" font-size="22" font-weight="800" fill="#0F172A">JRP</text>
<text x="76" y="50" font-family="Inter,Arial,sans-serif" font-size="16" font-weight="600" letter-spacing="2.4" fill="#475569">INDUSTRIES</text>
</svg>
